<svg width="260" height="58" viewBox="0 0 260 58" fill="none" xmlns="http://www.w3.org/2000/svg">
<g clip-path="url(#clip0_101_2)">
<path d="M185.51 28.0778C187.097 25.8874 189.513 24.3061 192.384 23.8497C198.153 22.933 203.579 26.9036 204.503 32.7184C205.427 38.5332 201.499 43.9902 195.731 44.9069C192.193 45.4692 188.784 44.1931 186.463 41.7806" stroke="white" stroke-opacity="0.10181" stroke-width="4" stroke-miterlimit="10"/>
<path d="M185.934 27.577C184.339 28.9527 183.349 35.3968 182.282 37.6481C181.753 38.7635 181.065 40.4028 179.903 41.5601C178.126 43.3315 175.82 44.4375 175.82 44.4375" stroke="white" stroke-opacity="0.10181" stroke-width="4" stroke-miterlimit="10"/>
<path d="M124.293 33.6758C124.293 39.944 119.252 45.0254 113.033 45.0254C106.815 45.0254 101.774 39.944 101.774 33.6758C101.774 27.4077 106.815 22.3263 113.033 22.3263C119.252 22.3263 124.293 27.4077 124.293 33.6758Z" stroke="white" stroke-width="4" stroke-miterlimit="10"/>
<path d="M257.24 37.3757C253.931 42.612 247.753 45.6614 241.29 44.6342C232.607 43.2543 226.696 35.0411 228.087 26.2894C229.478 17.5377 237.644 11.5616 246.326 12.9415C250.648 13.6283 254.283 16.0083 256.673 19.3051" stroke="white" stroke-width="4" stroke-miterlimit="10"/>
<path d="M154.187 22.4987C154.44 21.6345 155.347 21.1396 156.211 21.3932C157.075 21.6469 157.57 22.5532 157.316 23.4173L150.805 45.5963C150.612 46.254 150.041 46.6973 149.399 46.76C149.387 46.7612 149.375 46.7624 149.364 46.7633C149.328 46.7659 149.292 46.7677 149.256 46.7681C149.251 46.7681 149.245 46.7681 149.239 46.7681C149.234 46.7681 149.228 46.7681 149.223 46.7681C149.187 46.7677 149.151 46.766 149.115 46.7633C149.103 46.7624 149.091 46.7612 149.079 46.7599C148.437 46.6968 147.867 46.2536 147.674 45.5963L142.705 28.6703L137.736 45.5963C137.543 46.2536 136.973 46.6968 136.331 46.7599C136.319 46.7612 136.307 46.7624 136.295 46.7633C136.259 46.766 136.223 46.7677 136.187 46.7681C136.182 46.7681 136.176 46.7681 136.17 46.7681C136.165 46.7681 136.159 46.7681 136.153 46.7681C136.118 46.7677 136.082 46.7659 136.046 46.7633C136.035 46.7624 136.023 46.7612 136.011 46.76C135.369 46.6973 134.798 46.254 134.605 45.5963L128.094 23.4173C127.84 22.5532 128.335 21.6469 129.199 21.3932C130.063 21.1396 130.97 21.6346 131.223 22.4987L136.17 39.3506L141.118 22.4987C141.329 21.78 141.991 21.3168 142.705 21.3271C143.419 21.3168 144.081 21.78 144.292 22.4987L149.239 39.3506L154.187 22.4987Z" fill="white"/>
<path d="M68.6904 12.8772H98.0458" stroke="white" stroke-width="4" stroke-miterlimit="10"/>
<path d="M95.9352 12.8683C95.9352 11.7678 96.8274 10.8757 97.9278 10.8757C99.0283 10.8757 99.9204 11.7678 99.9204 12.8683C99.9204 13.9688 99.0283 14.8609 97.9278 14.8609C96.8274 14.8609 95.9352 13.9688 95.9352 12.8683Z" fill="white"/>
<path d="M66.6227 12.8836C66.6227 11.7831 67.5149 10.891 68.6153 10.891C69.7158 10.891 70.6079 11.7831 70.6079 12.8836C70.6079 13.984 69.7158 14.8762 68.6153 14.8762C67.5149 14.8762 66.6227 13.9841 66.6227 12.8836Z" fill="white"/>
<path d="M83.2697 42.971C84.3702 42.9648 85.2673 43.8519 85.2734 44.9524C85.2796 46.0528 84.3925 46.9499 83.292 46.9561C82.1916 46.9622 81.2945 46.0751 81.2883 44.9747C81.2822 43.8742 82.1693 42.9771 83.2697 42.971Z" fill="white"/>
<path d="M83.2511 12.876C84.3516 12.8698 85.2487 13.757 85.2549 14.8574C85.261 15.9579 84.3739 16.855 83.2735 16.8611C82.173 16.8673 81.2759 15.9802 81.2697 14.8797C81.2636 13.7793 82.1507 12.8822 83.2511 12.876Z" fill="black"/>
<path d="M83.2809 12.5995V44.9634" stroke="white" stroke-width="4" stroke-miterlimit="10"/>
<path d="M179.932 41.6378C177.612 44.0503 174.203 45.3264 170.665 44.7641C164.896 43.8473 160.968 38.3903 161.893 32.5755C162.817 26.7608 168.242 22.7901 174.011 23.7069C176.883 24.1633 179.298 25.7446 180.886 27.935" stroke="white" stroke-width="4" stroke-miterlimit="10"/>
<path d="M190.575 44.2946C190.575 44.2946 188.27 43.1886 186.492 41.4172C185.331 40.2598 184.642 38.6206 184.113 37.5051C183.046 35.2539 182.056 28.8097 180.461 27.4341" stroke="white" stroke-width="4" stroke-miterlimit="10"/>
<path d="M189.771 42.5247C190.769 42.0512 191.963 42.477 192.437 43.4758C192.91 44.4745 192.484 45.6681 191.485 46.1416C190.487 46.6152 189.293 46.1894 188.82 45.1906C188.346 44.1918 188.772 42.9983 189.771 42.5247Z" fill="white"/>
<path d="M179.192 39.6981C180.191 39.2245 181.384 39.6503 181.858 40.6491C182.332 41.6479 181.906 42.8414 180.907 43.315C179.908 43.7885 178.715 43.3627 178.241 42.364C177.768 41.3652 178.193 40.1716 179.192 39.6981Z" fill="white"/>
<path d="M197.915 46.909V10.6666" stroke="white" stroke-width="4" stroke-miterlimit="10"/>
<path d="M196.057 12.6829L209.317 12.7887C209.578 12.8177 209.839 12.8545 210.101 12.8993C216.791 14.0436 221.187 19.9638 219.92 26.1227C218.861 31.2755 214.172 34.9628 208.751 35.3597L196.051 35.3819" stroke="white" stroke-width="4" stroke-miterlimit="10"/>
<path d="M0 11.5246C0 9.93336 1.28993 8.64343 2.88114 8.64343H54.7416C56.3328 8.64343 57.6228 9.93336 57.6228 11.5246C57.6228 13.1158 56.3328 14.4057 54.7416 14.4057H2.88114C1.28993 14.4057 0 13.1158 0 11.5246Z" fill="white"/>
<path d="M0 20.168C0 18.5768 1.28993 17.2869 2.88114 17.2869H20.2832C21.8744 17.2869 23.1644 18.5768 23.1644 20.168C23.1644 21.7592 21.8744 23.0491 20.2832 23.0491H2.88114C1.28993 23.0491 0 21.7592 0 20.168Z" fill="white"/>
<path d="M34.6889 20.168C34.6889 18.5768 35.9788 17.2869 37.57 17.2869H54.7416C56.3328 17.2869 57.6228 18.5768 57.6228 20.168C57.6228 21.7592 56.3328 23.0491 54.7416 23.0491H37.57C35.9788 23.0491 34.6889 21.7592 34.6889 20.168Z" fill="white"/>
<path d="M0 2.88115C0 1.28994 1.28993 0 2.88114 0H54.7416C56.3328 0 57.6228 1.28994 57.6228 2.88115C57.6228 4.47236 56.3328 5.76228 54.7416 5.76228H2.88114C1.28993 5.76228 0 4.47236 0 2.88115Z" fill="white"/>
<path d="M25.9302 11.5246C25.9302 9.93336 27.2202 8.64343 28.8114 8.64343C30.4026 8.64343 31.6925 9.93336 31.6925 11.5246V54.7416C31.6925 56.3328 30.4026 57.6228 28.8114 57.6228C27.2202 57.6228 25.9302 56.3328 25.9302 54.7416V11.5246Z" fill="white"/>
<path d="M34.6889 20.168C34.6889 18.5768 35.9788 17.2869 37.57 17.2869C39.1612 17.2869 40.4512 18.5768 40.4512 20.168V54.7417C40.4512 56.3328 39.1612 57.6228 37.57 57.6228C35.9788 57.6228 34.6889 56.3329 34.6889 54.7417V20.168Z" fill="white"/>
<path d="M17.4021 20.168C17.4021 18.5768 18.692 17.2869 20.2832 17.2869C21.8744 17.2869 23.1644 18.5768 23.1644 20.168V54.7417C23.1644 56.3328 21.8744 57.6228 20.2832 57.6228C18.692 57.6228 17.4021 56.3329 17.4021 54.7417V20.168Z" fill="white"/>
</g>
<defs>
<clipPath id="clip0_101_2">
<rect width="259.24" height="57.6228" fill="white"/>
</clipPath>
</defs>
</svg>
