<svg width="2248" height="500" viewBox="0 0 2248 500" fill="none" xmlns="http://www.w3.org/2000/svg">
<path d="M1667.53 189.807C1727.21 180.328 1783.11 221.387 1792.62 281.18C1802.13 340.971 1761.72 397.323 1702.04 406.803C1665.44 412.617 1630.22 399.392 1606.33 374.569L1631.36 350.504C1647.77 367.548 1671.75 376.472 1696.59 372.527C1737.07 366.097 1764.85 327.746 1758.32 286.629C1751.78 245.51 1713.47 217.654 1672.98 224.084C1652.81 227.288 1635.83 238.372 1624.63 253.818L1596.51 233.447C1612.88 210.882 1637.85 194.522 1667.53 189.807Z" fill="white" fill-opacity="0.10181"/>
<path d="M1625.6 252.432C1625.9 252.176 1625.38 252.544 1624.3 254.398C1623.29 256.133 1622.14 258.543 1620.88 261.686C1618.34 268.006 1615.89 275.984 1613.4 284.828C1611.25 292.49 1608.28 303.8 1606.17 311.206C1603.86 319.324 1601.25 327.768 1598.24 334.111C1594.25 342.523 1586.9 360.215 1574.15 372.912C1565.17 381.857 1555.13 388.891 1547.57 393.597C1543.75 395.982 1540.43 397.846 1538.05 399.13C1536.85 399.772 1535.88 400.277 1535.19 400.63C1534.84 400.806 1534.55 400.944 1534.35 401.045L1534.01 401.215C1534 401.22 1533.98 401.219 1533.98 401.223L1533.97 401.232L1518.93 369.947C1518.95 369.939 1518.97 369.927 1519 369.913C1519.1 369.866 1519.26 369.782 1519.49 369.667C1519.94 369.435 1520.66 369.069 1521.58 368.574C1523.43 367.579 1526.1 366.077 1529.2 364.142C1535.52 360.207 1543.19 354.754 1549.64 348.33C1557.06 340.942 1561.67 330.185 1566.86 319.24C1568.49 315.815 1570.42 309.946 1572.76 301.716C1575.31 292.771 1577.09 285.689 1579.97 275.439C1582.52 266.372 1585.38 256.911 1588.64 248.78C1591.6 241.419 1595.99 232.113 1602.91 226.147L1625.6 252.432ZM1518.93 369.947C1518.93 369.951 1518.91 369.953 1518.91 369.955L1518.92 369.947H1518.93Z" fill="white" fill-opacity="0.10181"/>
<path d="M1061.73 292.21C1061.73 247.275 1025.61 211.083 981.342 211.083C937.073 211.083 900.95 247.275 900.95 292.21C900.951 337.146 937.073 373.338 981.342 373.338C1025.61 373.338 1061.73 337.146 1061.73 292.21ZM1096.46 292.21C1096.46 356.054 1045.05 408.047 981.342 408.047C917.634 408.047 866.223 356.054 866.223 292.21C866.223 228.366 917.634 176.374 981.342 176.374C1045.05 176.374 1096.46 228.366 1096.46 292.21Z" fill="white"/>
<path d="M1963.07 225.396C1976.63 140.12 2056.32 81.6573 2141.3 95.154C2183.57 101.869 2219.13 125.16 2242.46 157.326L2214.35 177.697C2196.18 152.651 2168.62 134.635 2135.85 129.43C2070.07 118.984 2007.96 164.243 1997.37 230.844C1986.78 297.445 2031.8 359.713 2097.58 370.161C2146.53 377.936 2193.46 354.875 2218.65 315.04L2248 333.589C2215.73 384.621 2155.39 414.486 2092.12 404.438C2007.15 390.94 1949.52 310.672 1963.07 225.396Z" fill="white"/>
<path d="M1338.63 195.224C1340.83 187.726 1348.7 183.431 1356.2 185.632C1363.71 187.833 1368 195.697 1365.8 203.195L1309.27 395.645C1307.6 401.352 1302.64 405.198 1297.06 405.743C1296.96 405.753 1296.86 405.763 1296.76 405.771C1296.45 405.794 1296.14 405.81 1295.83 405.813C1295.78 405.813 1295.73 405.813 1295.68 405.813C1295.63 405.813 1295.58 405.813 1295.53 405.813C1295.22 405.81 1294.91 405.795 1294.6 405.771C1294.5 405.763 1294.39 405.753 1294.29 405.742C1288.71 405.194 1283.76 401.348 1282.09 395.645L1238.95 248.776L1195.81 395.645C1194.13 401.348 1189.18 405.194 1183.61 405.742C1183.5 405.753 1183.4 405.763 1183.29 405.771C1182.98 405.795 1182.67 405.81 1182.36 405.813C1182.31 405.813 1182.26 405.813 1182.22 405.813C1182.17 405.813 1182.12 405.813 1182.07 405.813C1181.76 405.81 1181.45 405.794 1181.14 405.771C1181.04 405.763 1180.94 405.753 1180.83 405.743C1175.25 405.198 1170.3 401.352 1168.62 395.645L1112.09 203.195C1109.89 195.697 1114.19 187.833 1121.69 185.632C1129.19 183.431 1137.06 187.726 1139.26 195.225L1182.21 341.45L1225.17 195.225C1227 188.988 1232.75 184.969 1238.95 185.058C1245.15 184.969 1250.9 188.988 1252.73 195.225L1295.68 341.45L1338.63 195.224Z" fill="white"/>
<path d="M851.223 94.3827V129.091H596.362V94.3827H851.223Z" fill="white"/>
<path d="M832.898 111.66C832.898 102.111 840.644 94.3704 850.198 94.3704C859.752 94.3704 867.497 102.111 867.497 111.66C867.497 121.209 859.752 128.95 850.198 128.95C840.644 128.95 832.898 121.209 832.898 111.66Z" fill="white"/>
<path d="M578.411 111.792C578.411 102.243 586.156 94.5025 595.71 94.5025C605.264 94.5025 613.01 102.243 613.01 111.792C613.01 121.341 605.264 129.082 595.71 129.082C586.156 129.082 578.411 121.341 578.411 111.792Z" fill="white"/>
<path d="M722.938 372.864C732.492 372.811 740.28 380.508 740.334 390.057C740.387 399.606 732.685 407.39 723.131 407.444C713.577 407.497 705.789 399.8 705.736 390.251C705.682 380.702 713.384 372.918 722.938 372.864Z" fill="white"/>
<path d="M722.776 111.727C732.33 111.673 740.119 119.371 740.172 128.92C740.226 138.468 732.524 146.253 722.97 146.306C713.416 146.359 705.628 138.662 705.574 129.113C705.521 119.564 713.222 111.78 722.776 111.727Z" fill="white"/>
<path d="M740.398 109.328V390.157H705.671V109.328H740.398Z" fill="white"/>
<path d="M1388.38 279.94C1397.89 220.148 1453.79 179.088 1513.47 188.568C1543.15 193.283 1568.12 209.643 1584.49 232.208L1556.37 252.579C1545.17 237.133 1528.19 226.049 1508.02 222.844C1467.53 216.414 1429.22 244.271 1422.68 285.389C1416.15 326.507 1443.93 364.857 1484.41 371.288C1509.25 375.232 1533.24 366.308 1549.64 349.264L1574.67 373.33C1550.78 398.152 1515.56 411.377 1478.96 405.564C1419.28 396.084 1378.87 339.732 1388.38 279.94Z" fill="white"/>
<path d="M1578.09 224.907C1585.01 230.873 1589.41 240.179 1592.36 247.54C1595.62 255.671 1598.48 265.132 1601.03 274.199C1603.91 284.45 1605.69 291.531 1608.24 300.476C1610.58 308.706 1612.51 314.575 1614.14 318C1619.33 328.945 1623.94 339.702 1631.36 347.09C1637.81 353.514 1645.48 358.967 1651.8 362.902C1654.9 364.837 1657.56 366.339 1659.41 367.334C1660.33 367.829 1661.05 368.195 1661.51 368.427L1662.07 368.707L1647.04 399.992L1647.02 399.983C1647.01 399.98 1647 399.979 1646.99 399.975L1646.65 399.805C1646.45 399.704 1646.16 399.567 1645.81 399.39C1645.12 399.037 1644.14 398.533 1642.95 397.89C1640.56 396.606 1637.25 394.741 1633.43 392.357C1625.87 387.651 1615.83 380.618 1606.85 371.673C1594.1 358.976 1586.75 341.283 1582.76 332.871C1579.75 326.529 1577.14 318.084 1574.83 309.967C1572.73 302.56 1569.75 291.25 1567.6 283.588C1565.11 274.744 1562.66 266.766 1560.12 260.446C1558.86 257.303 1557.71 254.894 1556.7 253.159C1555.62 251.303 1555.1 250.935 1555.4 251.193L1578.09 224.907Z" fill="white"/>
<path d="M1647.57 368.993C1656.24 364.884 1666.6 368.578 1670.71 377.245C1674.82 385.911 1671.13 396.268 1662.45 400.377C1653.78 404.486 1643.42 400.791 1639.31 392.125C1635.2 383.458 1638.89 373.102 1647.57 368.993Z" fill="white"/>
<path d="M1555.72 344.466C1564.4 340.357 1574.76 344.051 1578.87 352.718C1582.98 361.384 1579.28 371.741 1570.61 375.85C1561.94 379.959 1551.58 376.264 1547.47 367.598C1543.36 358.931 1547.05 348.575 1555.72 344.466Z" fill="white"/>
<path d="M1735.64 92.556V407.034H1700.91V92.556H1735.64Z" fill="white"/>
<path d="M1817.4 93.612L1818.3 93.6204L1819.18 93.7221C1820.48 93.8667 1821.79 94.0299 1823.09 94.2136L1827 94.8237C1893.44 106.181 1939.57 165.853 1926.33 230.167C1915.36 283.499 1867.35 320.2 1813.62 324.132L1813 324.174H1812.38L1702.12 324.369L1702.05 289.661L1811.6 289.466C1851.78 286.315 1884.92 259.112 1892.32 223.176C1901.08 180.607 1870.86 137.532 1821.14 129.032C1819.45 128.743 1817.76 128.512 1816.08 128.312L1702 127.405L1702.28 92.6968L1817.4 93.612Z" fill="white"/>
<path d="M0 100C0 86.1928 11.199 75 25.0137 75H475.26C489.075 75 500.274 86.1928 500.274 100C500.274 113.807 489.075 125 475.26 125H25.0137C11.199 125 0 113.807 0 100Z" fill="white"/>
<path d="M0 175C0 161.193 11.199 150 25.0137 150H176.096C189.911 150 201.11 161.193 201.11 175C201.11 188.807 189.911 200 176.096 200H25.0137C11.199 200 0 188.807 0 175Z" fill="white"/>
<path d="M301.165 175C301.165 161.193 312.364 150 326.178 150H475.26C489.075 150 500.274 161.193 500.274 175C500.274 188.807 489.075 200 475.26 200H326.178C312.364 200 301.165 188.807 301.165 175Z" fill="white"/>
<path d="M0 25.0001C0 11.193 11.199 0 25.0137 0H475.26C489.075 0 500.274 11.193 500.274 25.0001C500.274 38.8072 489.075 50.0001 475.26 50.0001H25.0137C11.199 50.0001 0 38.8072 0 25.0001Z" fill="white"/>
<path d="M225.123 100C225.123 86.1928 236.322 75 250.137 75C263.951 75 275.151 86.1928 275.151 100V475C275.151 488.807 263.952 500 250.137 500C236.322 500 225.123 488.807 225.123 475V100Z" fill="white"/>
<path d="M301.165 175C301.165 161.193 312.364 150 326.178 150C339.993 150 351.192 161.193 351.192 175V475C351.192 488.807 339.993 500 326.178 500C312.364 500 301.165 488.807 301.165 475V175Z" fill="white"/>
<path d="M151.083 175C151.083 161.193 162.282 150 176.096 150C189.911 150 201.11 161.193 201.11 175V475C201.11 488.807 189.911 500 176.096 500C162.282 500 151.083 488.807 151.083 475V175Z" fill="white"/>
</svg>
